<?xml version="1.0" encoding="UTF-8" standalone="no"?>
<svg
   width="40mm"
   height="84mm"
   viewBox="0 0 472.44064 992.12777"
   version="1.1"
   id="svg1"
   xmlns:xlink="http://www.w3.org/1999/xlink"
   xmlns="http://www.w3.org/2000/svg"
   xmlns:svg="http://www.w3.org/2000/svg">
  <defs
     id="defs1" />
  <path
     id="Auswahl"
     fill="none"
     stroke="#000000"
     stroke-width="1"
     d="m 101.97087,746.0889 c 0,0 91.83,4.4 173.01,-15.43 85.74,-20.94 161.08,-66.17 161.08,-66.17 M 53.670872,503.3389 c 0,0 66.769998,-28.38 137.509998,-36.42 79.45,-9.03 163.88,2.17 163.88,2.17 m -129.31,514.02 -20.75,-10.67 c -4.33,-2.31 -12.53,-6.26 -15.91,-9.16 l -14.23,-13.98 c -8.83,-10.61 -19.45,-31.65 -25.01,-44.62 l -8.88,-21.39 -11.64,-54.07 -4.55,-23.84 -6.6,-24.11 c -2.74,-9.89 -5.95,-21.76 -11,-30.71 -2.96,-5.23 -5.31,-4.47 -10.420001,-5.69 -7.359997,-1.74 -12.429997,-2.4 -19.459997,-5.35 -19.85,-8.35 -17.91,-7.15 -36.84,-18.45 -3.66,-2.19 -11.06,-6.11 -13.97,-8.63 -3.05,-2.63 -7.74,-9.24 -10.37,-12.71 -3.15,-4.14 -8.8200007,-10.68 -10.1500007,-15.51 l -2.2500003,-18.47 c -2.3300001,-21.17 -2.89000007,-23.1 -2.2600001,-44.72 l 0.9200001,-25.11 13.660001,-28.41 11.12,-17.66 18.84,-30.74 c 2.35,-4.16 9.3,-14.64 9.15,-18.93 -0.1,-2.49 -3.18,-10.83 -4.15,-13.69 l -9.01,-26.46 -9.39,-27.52 -13.02,-37.1 -6.05,-27.07 -5.0200007,-24.9 1.7199997,-31.05 1.620001,-26.03 0.45,-10.03 8.55,-35.16 c 5.62,-21.33 6.35,-28.5 14.58,-50.5 l 13.05,-35.56001 15.21,-21.14 20.8,-28.45 14.999997,-17.129999 26.580001,-29.68 c 5.14,-4.7 23.41,-17.37 29.87,-21.58 4.58,-3.01 9.75,-7.53 14.45,-9.76 l 22.18,-7.28 29.52,-9.21 40.14,1.72 36.07,1.89 10.03,0.45 14.73,2.98 11.89,1.62 12.74,2.79 c 5.27,0.77 21.4,3.08 25.56,5.05 3.75,1.8 14.38,12.87 17.95,16.39 l 23,23.04 13.12,23.9 17.24,33.639999 5.88,39.15 c 1.57,12.75001 6,30.79001 4.35,42.99001 l -7.21,45.44 c -1.43,10.38 -6.68,21.94 -10.52,31.87 l -14.63,38.37 -13.06,27.49 -11.83,24.63 -17.15,29.96 -16.03,31.12 c -3.24,6.58 -7.02,12.74 -8.12,20.08 -0.4,2.73 -1.55,9.58 -1.02,11.97 0.7,3.21 4.07,7.3 6.12,9.9 1.38,1.77 2.64,3.38 4.39,4.82 l 30.06,16.38 39.76,19.25 c 3.62,2.28 9.31,7.5 12.71,10.44 3.37,2.93 9.91,7.75 12.09,11.26 1.84,2.98 6.91,23.72 7.68,28.12 0.94,5.39 -2.25,17.01 -3.73,22.7 l -4.22,17.59 -13.74,30.43 c -2.25,4.81 -8.82,16.45 -9.27,20.93 -1.88,18.55 12.08,35.59 15.17,49.51 0.86,3.88 0.43,7.29 0.31,11.14 -0.09,3.43 0.32,5.54 -0.71,8.99 l -11.38,24.69 c -3.79,5.34 -23.53,22.05 -29.55,26.2 -15.94,10.96 -17.77,10.21 -32.28,24.91 -1.81,1.83 -5.22,5.11 -6.47,7.19 -1.61,2.71 -1.6,5.77 -2.31,8.77 l -4.06,23.67 -3.16,15.72 c -1.76,12.77 -5.98,22.92 -10.39,34.91 l -7.32,20.2 -13.65,21.35 -7.18,11.13 c -2.79,3.52 -10.43,9.89 -14.14,13.21 -3.49,3.12 -10.47,9.69 -14.14,11.79 -3.36,1.9 -10.69,3.48 -14.76,4.61 -13.68,3.78 -16.54,5.35 -31.07,5.78 -6.45,0.19 -18.55,1.38 -24.23,0.1 z" />
  <path
     style="fill:#7b2d26;fill-opacity:1;stroke-width:0.523206"
     d="m 60.721472,499.6605 c 27.4829,-10.9376 67.289968,-22.5095 97.839638,-28.442 44.47497,-8.6365 98.48775,-10.7441 160.88606,-6.2777 10.87064,0.7781 30.4134,2.5985 33.52643,3.1229 1.51403,0.255 1.59796,0.1838 1.39684,-1.1866 -0.4171,-2.8419 1.41816,-14.1631 2.99745,-18.4905 2.22976,-6.1097 21.26063,-42.783 30.78867,-59.3311 8.04062,-13.9648 10.74942,-19.3074 25.59902,-50.4895 7.29267,-15.3135 9.91716,-21.7774 27.09873,-66.7411 4.39285,-11.4959 5.19649,-15.0536 9.44782,-41.8242 l 3.98823,-25.114 -0.29122,-7.8481 c -0.16017,-4.3164 -0.78631,-10.9088 -1.39143,-14.6498 -0.60511,-3.7409 -2.83118,-18.26281 -4.94681,-32.27081 l -3.84661,-25.4691 -7.44011,-14.5562 C 432.28212,102.08679 425.508,89.244491 421.32057,81.554191 l -7.61351,-13.9824 -19.13839,-19.0414 c -11.42876,-11.3709 -19.98144,-19.468 -21.23121,-20.1004 -2.39902,-1.2139 -8.93245,-2.6874 -19.09307,-4.306 -3.88263,-0.6185 -9.72476,-1.7008 -12.98252,-2.4052 -3.25776,-0.7043 -9.0279,-1.7394 -12.82253,-2.3002 -3.79463,-0.5607 -9.77459,-1.6077 -13.2888,-2.3266 -5.44055,-1.113 -10.21925,-1.5048 -32.17721,-2.6381 -14.18326,-0.7321 -33.61485,-1.6654 -43.18131,-2.0742 l -17.39355,-0.743 -14.26045,4.4254 c -19.18543,5.9539 -36.31517,11.6419 -38.76751,12.8728 -1.10503,0.5547 -4.40125,2.7188 -7.3249,4.8091 -2.92363,2.0903 -8.84737,6.2293 -13.16381,9.1977 -19.48271,13.3982 -20.0158,13.8708 -36.67132,32.509 C 83.925092,107.10319 86.380872,104.03899 59.507012,141.21009 l -10.32497,14.2811 -8.5529,23.38981 c -4.70409,12.8643 -9.19843,25.5087 -9.98746,28.0985 -1.78994,5.8755 -7.88212,29.6862 -13.32871,52.0942 -4.02434,16.5566 -4.15775,17.3126 -4.709,26.6836 -0.31219,5.3043 -1.02247,17.2961 -1.57875,26.6484 -1.9685907,33.0953 -2.0093407,29.6006 0.49106,42.1181 1.20713,6.0431 3.69825,17.7 5.53584,25.9042 3.00869,13.4327 3.9725,16.7122 9.687,32.9621 10.47346,29.7823 28.73851,83.7114 29.08429,85.8737 0.1775,1.1107 0.46941,2.0057 0.64847,1.9889 0.17907,-0.016 2.09135,-0.7333 4.24959,-1.5922 z"
     id="path1" />
  <path
     style="fill:#ffd3af;fill-opacity:1;stroke-width:0.369962"
     d="m 248.94162,982.4337 c 10.49408,-0.5671 15.01935,-1.1915 21.4349,-2.9578 2.49985,-0.6881 8.46154,-2.328 13.24819,-3.644 9.78745,-2.691 11.75699,-3.5018 15.17108,-6.2455 3.31123,-2.661 21.28748,-18.7139 23.16589,-20.6873 0.84398,-0.8866 5.15353,-7.2724 9.57676,-14.1907 4.42324,-6.9183 8.92895,-13.9482 10.01271,-15.622 2.7489,-4.2456 2.60185,-3.9095 6.92603,-15.8263 2.14096,-5.9001 4.99681,-13.7242 6.34632,-17.3869 2.88636,-7.8336 5.40662,-16.3513 6.29437,-21.2728 0.34869,-1.9331 1.36917,-7.2206 2.26774,-11.7501 0.89857,-4.5295 2.7992,-15.0179 4.22364,-23.3077 2.18586,-12.721 2.75873,-15.4185 3.67238,-17.292 0.87893,-1.8023 2.49541,-3.6175 8.59566,-9.652 4.13224,-4.0878 8.78016,-8.4308 10.32872,-9.6513 1.54856,-1.2204 7.20899,-5.1348 12.57874,-8.6985 12.32219,-8.178 23.34862,-17.0978 33.02361,-26.7143 l 3.76075,-3.7381 5.80624,-12.6183 c 3.19342,-6.9401 5.97483,-13.3497 6.18089,-14.2436 0.20606,-0.8939 0.37873,-4.9308 0.38371,-8.971 0.0122,-9.93 -0.24675,-10.8972 -6.74793,-25.2017 -5.7149,-12.5744 -7.58755,-17.9267 -8.51157,-24.3273 l -0.46223,-3.2019 -3.88094,2.2341 c -17.5574,10.1069 -44.89162,23.5679 -67.88863,33.4322 -66.20778,28.3992 -121.18022,40.9895 -197.0012,45.119 -14.83134,0.8077 -41.66589,1.3516 -52.50122,1.064 l -9.40053,-0.2494 1.12009,1.6322 c 4.22081,6.1507 7.3085,14.8541 14.36043,40.4784 3.3711,12.2493 4.74744,18.0052 6.50216,27.1922 1.22421,6.4097 4.89074,24.0569 8.1478,39.2161 l 5.92197,27.5623 4.84165,11.6538 c 9.16809,22.0674 16.1104,35.7121 24.45352,48.0616 2.953,4.3711 4.28856,5.8844 11.23225,12.7272 4.33441,4.2715 8.67353,8.3001 9.64251,8.9526 2.23326,1.5037 9.11487,5.2059 23.4046,12.5911 l 11.28387,5.8317 6.65933,0.099 c 3.66264,0.054 10.78422,-0.1241 15.82574,-0.3967 z"
     id="path2" />
  <path
     style="fill:#ffffff;fill-opacity:1;stroke-width:0.261603"
     d="m 146.78896,745.586 c 43.24369,-1.4366 78.77823,-5.2238 111.53258,-11.8867 41.79995,-8.503 87.62291,-24.616 135.33079,-47.5871 12.97483,-6.2473 29.7023,-15.0073 39.18021,-20.5183 1.90692,-1.1088 3.05253,-1.6347 3.16494,-1.4528 0.0969,0.1569 0.24382,-1.0878 0.32645,-2.7658 0.20429,-4.1477 0.94917,-6.2154 5.69825,-15.8177 2.09924,-4.2445 6.89547,-14.5452 10.6583,-22.8903 l 6.84151,-15.173 1.58932,-6.6709 c 0.87413,-3.669 2.4042,-9.9671 3.40016,-13.9958 1.86594,-7.5478 2.69164,-11.7979 2.99863,-15.4346 0.14482,-1.7156 0.0528,-2.7058 -0.5105,-5.4936 -1.59845,-7.9109 -5.77369,-23.2169 -6.97844,-25.5823 -0.79368,-1.5582 -3.64669,-4.4313 -8.2027,-8.2604 -2.15822,-1.8138 -5.80759,-4.9332 -8.1097,-6.9319 -7.26484,-6.3072 -6.19738,-5.6897 -28.51476,-16.4945 -16.52031,-7.9981 -22.80201,-11.1993 -34.92405,-17.7976 -12.0882,-6.5798 -15.03547,-8.2907 -16.17983,-9.3923 -1.92113,-1.8493 -6.41371,-7.6373 -7.75522,-9.9914 -0.60739,-1.0658 -1.15053,-1.8922 -1.207,-1.8365 -0.0565,0.056 -2.51596,-0.1778 -5.46554,-0.5191 -26.67198,-3.0861 -62.22155,-5.082 -90.51476,-5.082 -28.92666,0 -57.58156,1.8358 -79.91982,5.1202 -38.4866,5.6586 -80.486081,17.1956 -122.498208,33.6494 l -1.37587,0.5388 -1.65535,3.429 c -0.91043,1.886 -2.69228,5.1949 -3.95968,7.3531 -3.63153,6.1842 -20.26705,33.2906 -27.0133,44.0163 l -6.13025,9.7463 -6.7892107,14.1235 -6.7892503,14.1236 -0.51459,13.5394 c -0.64506,16.972 -0.6899401,30.8806 -0.12063,37.3454 0.47485,5.3908 2.07069,19.6711 3.3766303,30.2153 1.00087,8.0808 1.138,8.5427 3.71228,12.5014 0.8151197,1.2535 2.6201207,3.7506 4.0110607,5.5491 1.39096,1.7985 4.20334,5.4651 6.24971,8.1481 6.38894,8.3763 7.07706,8.9699 17.31515,14.9386 3.09347,1.8035 8.15549,4.7689 11.24893,6.5897 8.65862,5.0968 12.23474,6.8409 24.97786,12.1825 9.03672,3.7879 10.46475,4.209 25.904017,7.6378 l 3.662431,0.8134 20.79746,0.046 c 11.43862,0.025 21.85696,0.01 23.1519,-0.032 z"
     id="path3" />
  <use
     x="0"
     y="0"
     xlink:href="#Auswahl"
     id="use1"
     transform="translate(2.7536827e-7,1.207221e-5)" />
  <use
     x="0"
     y="0"
     xlink:href="#path1"
     id="use2"
     transform="translate(2.7536827e-7,1.207221e-5)" />
  <use
     x="0"
     y="0"
     xlink:href="#path2"
     id="use3"
     transform="translate(2.7536827e-7,1.207221e-5)" />
  <use
     x="0"
     y="0"
     xlink:href="#path3"
     id="use4"
     transform="translate(2.7536827e-7,1.207221e-5)" />
</svg>
