<?xml version="1.0" encoding="UTF-8" standalone="no"?>
<svg
   width="114.99699mm"
   height="181.97301mm"
   viewBox="0 0 1358.2321 2149.287"
   version="1.1"
   id="svg1"
   xmlns="http://www.w3.org/2000/svg"
   xmlns:svg="http://www.w3.org/2000/svg">
  <defs
     id="defs1" />
  <path
     id="Pfad #5"
     fill="none"
     stroke="#000000"
     stroke-width="1"
     d="m 180.76915,1293.032 c 0,0 228,61.04 471,56.5 277.12,-5.17 573.74995,-76 573.74995,-76 m -995.24995,413.5 c 0,0 75.74,53.35 168,78 92.98,24.85 202.5,21 202.5,21 m 201,-1.5 c 0,0 111.37,-3.07 200.99995,-21 78.37,-15.67 136.5,-46.5 136.5,-46.5 M 879.76915,376.53205 c 0,0 104,-14 149.99995,8 0,0 24.9921,15.20751 22.7921,27.90751 -2.3,13.29 -15.7921,22.09249 -31.7921,24.09249 0,0 -31.55995,-2.62 -62.99995,-16 -38.36,-16.32 -78,-44 -78,-44 m 182.99995,380.5 c 0,0 -124.49995,3.27 -212.99995,-43.5 -92.67,-48.97 -149.55,-148.09 -149.55,-148.09 m 291.3485,-421.20747 c 0,0 -44.5485,159.69747 -152.7985,286.29747 -121.04,141.56 -305,259 -305,259 m 246,-646.000002 c 0,0 -34.32,147.670002 -101,261.000002 -78.8,133.94 -192,237 -192,237 m -209.33,-341.67 c 0,0 16,95.34 -42,148 m 251.33,194.67 5.72,44 2.89,22 11.44,29 c 2.84,6 11.25,13.41 15.56,19 2.29,2.97 6.72,13.1 8.39,17 1.82,4.25 4.07,8.25 3.67,13 -0.65,7.86 -5.19,12.15 -9.87,18 l -21.92,28 c -8.39,11.46 -13.99,26.74 -18.93,40 -5.07,13.61 -9.77,25.23 -9.95,40 l -1,20 2,28 c 0.03,2.52 0.21,7.81 -0.6,10 -0.98,2.67 -4.83,6.74 -6.82,8.99 -5.12,5.75 -25.07,18.66 -32.58,23.68 l -34,22.49 -15,12.23 -34,28.46 -30.54,27.16 c -26.08,30.92995 -56.13,82.72995 -72.6,119.98995 l -37.44,97 -17.09,48 -11.22,31 c -11.2,21.39 -25.03,39.45 -40.36,58 -7.22,8.74 -24.52,29.16 -29.54,38 -2.64,4.64 -5.53,15.51 -7.23,21 l -7.460005,24 c -1.33,6.19 -1.18,12.72 -1.61,19 l -0.91,10 v 29 c 0.01,9.13 4.930005,24.81 9.130005,33 l 13.45,22 c 12.41,19.93 14.49,24.09 29.62,43 2.77,3.46 6.81,8.83 9.89,11.71 l 29.91,24.58 c 8.66,7.59 16.2,16.31 24.02,24.71 8.29,8.91 19.61,25.26 18.89,38 l -3.2,22 c -1.14,4.27 -10.03,26.37 -12.18,30 l -8.65,12 -28.11,37 c -9.51,13.59 -16.21,29.01 -23.08,44 l -14.38,35 -4.56,13 -2.34,13 -2.32,15 c -0.23,3.52 1.52,23.98 2.63,27 1.36,3.68 12.55,17.89 15.65,22 6.75,8.94 26.56,27.56 35.63,34.37 l 26,18.84 c 10.14,5.43 24.58,8 36,7.79 7.81,-0.15 11.59,-4.86 17,-10 6.29,-5.98 21.92,-17.6 31,-16.44 3.15,0.4 10.03,4.67 13,6.45 17.66,10.6 33.22,31.01 46,46.99 12.95,16.19 21.53,24.53 36,39 7.64,7.64 15.16,16.06 24,22.28 9.98,7.02 23.38,15.32 35,19.12 l 15,3.01 c 4.85,0.82 9.03,1.74 14,1.55 l 11,-0.96 18,-1 28,-1.83 c 8.18,-0.78 20.28,-0.96 28,-2.93 18.02,-4.59 33.63,-13.67 50,-22 7.32,-3.72 33.75,-18.18 38.68,-22.77 2.64,-2.45 4.82,-6.38 6.74,-9.47 9.32,-14.96 7.83,-13.13 13.63,-29 2.25,-6.16 4.77,-11.31 4.94,-18 l -1.37,-21 c -1.82,-9.12 -14.89,-36.38 -19.31,-46 l -24.22,-48 c -9.07,-12.87 -31.21,-40.87 -37.02,-54 -1.91,-4.3 -5.01,-21.06 -5.07,-26 -0.1,-8.94 0.33,-26.59 5.56,-33.96 1.65,-2.33 4.18,-4.19 6.44,-5.91 10.88,-8.29 19.21,-9.06 32,-12.26 l 21,-5.41 46,-4.46 h 15 l 20,1 c 8.63,0.01 13.71,1.6 22,3.2 l 22,4.46 c 3.17,1.17 22.15,12.6 24.96,14.87 2.9,2.34 7.07,7.47 9.62,10.47 14.67,17.22 11.82,13.62 20.57,34 l 7.34,18 3.59,22 3.74,25 -1.65,17 -2.45,26 -4.68,35 v 9 l -1.04,10 c -0.25,22.1 -0.22,17.98 3.58,39 l 3.19,16 23.38,55 c 4.82,11.24 5.05,12.14 11.27,23 1.34,2.33 4.01,7.65 6.11,9.01 1.9,1.23 5.24,0.99 7.47,0.99 h 72 l 15,-1.02 h 15 l 9.99995,-0.97 c 3.47,-0.1 9.64,0 12.18,-2.73 2.12,-2.3 1.82,-7.31 1.78,-10.28 v -14 l -1,-10 v -10 l -0.96,-10 v -6 l -0.99,-14 c -0.12,-5.56 0.18,-10.91 6.99,-11.85 6.29,-0.86 13.08,5.19 18,8.71 l 37,24.81 c 5.25,3.49 20.78,13.39 26,15.38 l 22,4.75 c 13.16,2.63 29.67,5.73 43,6.16 l 15,-1.54 16,-2.21 33,-14.95 35,-18.36 c 16.65,-10.89 35.44,-29.1 47.48,-44.9 l 10.94,-17 12.92,-21 2.26,-10 c 4.28,-21.38 1.64,-24.47 1.4,-45 -0.1,-8.12 -2.55,-16.93 -3.92,-25 -3.23,-19.01 -4.34,-25.72 -11.03,-44 l -3.45,-9 c -1.73,-3.3 -4.68,-6.91 -6.89,-10 -13.47,-18.82 -27.08,-31.62 -46.71,-43.81 -5.13,-3.18 -11.57,-7.87 -17,-10.1 l -15,-5.09 -16,-5.56 -19,-4.56 c -13.29,-3.15 -32.89,-7.55 -44,-15.51 -3.62,-2.6 -6.53,-6.02 -9.42,-9.37 -6.25,-7.23 -13.05,-12.25 -14.45,-22 -0.26,-1.83 -0.78,-5.27 -0.57,-7 1.12,-9.37 13.08,-17.96 19.44,-24.04 l 57,-58.96 c 22.58,-22.58 56.57,-53.57 73.78,-79 l 11.47,-22 13.2,-26 3.76,-16 c 5.84,-27.05 4.08,-20.71 5.88,-47 l 0.74,-10 v -11 l -9.63,-25 c -5.15,-12.87 -17.2,-35.98 -25.12,-47 l -14.48,-18 -13.77,-17 -12.87,-14 c -7.97,-8.33 -16.05,-14.91 -20.48,-26 -4.34,-10.84 -1.75,-20.95 -0.65,-32 l 7.9,-64 c 3.5,-24.26 7.31,-48.45 7.27,-73 l -3.29,-50 -4.29,-20 -5.98,-26 -22.76,-36.99995 -29,-44 -17.59,-19 -53.89,-60 -25.4,-31 c -3.17,-3.96 -9.76,-11.77 -11.75,-16 l -5.06,-19 c -1.93,-8.12 -0.61,-12.28 0,-20 v -10 l 7.94,-32 12.29,-23 16.09,-30 11.37,-21 6.74,-16 8.98,-22 4.6,-36 c 0.08,-7.14 -2.96,-33.23 -4.75,-40 l -5.92,-17 -8.7,-24 -16.11,-25 -30.89,-40 c -3,-4.04 -10.9,-14.47 -11.66,-19 -1.53,-9.16 11.82,-17.72 18.03,-22.92 8.22,-6.88 13.75,-14.77 20.4,-23.08 l 16.36,-21 c 3.62,-5.61 7.01,-14.57 4.5,-21 -5.35,-13.71 -9.96,-15.54 -20.26,-25.09 l -18,-16.38 -12.91,-8.16 c -3.49,-2.72 -9.47,-11.37 -11.75,-15.37 -5.77,-10.08 -13.48,-28.79 -16.6,-40 l -7.08,-28 c -2.19,-5.14 -7.04,-15.07 -10.76,-18.91 -5.42,-5.6 -17.14995,-13.37 -20.96995,-20.09 -2.19,-3.85 -2.56,-14.1 -3.37,-19 -0.99,-5.96 -5.27,-15.5 -8.07,-21 -2.74,-5.37 -10.06,-13.130002 -14.22,-18.000002 -13.73,-16.04 -16.54,-18.49 -32.27,-32.28 l -8,-7.04 c -5.77,-4.37 -18.65,-7.28 -26,-9.39 -21.98,-6.31 -45.27,-7.33 -68,-7.29 l -52,4.75 c -3.97,-0.39 -15.55,-5.91 -20,-7.74 l -31,-10.67 -46,-12.06 -39,-3.3700003 -10,-0.91 c -23.81,-0.27 -39.33,3.1200003 -62,9.5800003 l -21,6.3 -37,21.15 -27,10.34 c -35.53,17.46 -56.88,34.45 -86,60.800002 -4.09,3.7 -14.04,13.66 -17.33,17.83 -9.52,12.09 -19.8,30.09 -30.71,40.96 -5.17,5.15 -12.62,9.83 -18.96,13.46 -5.58,3.2 -10.65,6.14 -17,7.57 -9.57,2.14 -23.47,5.39 -33,4.97 -11.7,-0.51 -23.94,-5.27 -35,-8.96 -8.02,-2.67 -16.36,-4.57 -24,-8.26 l -47,-23.52 -11,-5.29 c -6.09,-2.4 -24.56,-6.85 -31,-6.93 h -11 l -17,-1 -31.000005,0.72 c -4.92,0.58 -10.24,0.25 -15,1.96 -3.05,1.11 -13.25,8.34 -16,10.64 -4.5,3.77 -22.08,24.53 -25.46,29.68 l -7.85,14 c -4.9799996,9.19 -7.6699996,11.14 -7.6899996,22 v 18 c 0.1,8.39 4.2099996,19.68 6.5799996,28 l 3.88,13 20.09,40 11.04,14 c 6.22,7.48 17.59,18.63 26.41,22.74 3.73,1.74 21.83,6.08 26.000005,6.22 3.75,0.12 5.54,-0.46 9,-0.88 h 9 c 14.53,-0.25 23.74,-4.76 37,-9.39 8.12,-2.83 32.49,-10.6 40,-10.69 h 9 l 14,-0.98 c 7.1,-0.14 21.85,2.62 28,6.02 4.27,2.36 17.7,11.02 20.82,14.14 3.65,3.65 8.49,12.17 11.52,16.82 l 10.79,17 21.66,38 23.08,27 c 8.37,9.72 30.98,34.31 40.13,41.62 l 34,20.74 25,7.01 c 9.35,2.33 29.27,7.59 38,7.63 z m 511,-311.54 c -5.1,1.14 -9.83,2.6 -13.9,6.07 -7.55,6.44 -8.05,17.18 -0.89,24.14 4.57,4.45 12.49,7.04 18.78995,7.29 7.65,0.31 17.37,-2.28 22.61,-8.14 10.35,-11.59 1.25,-24.54 -11.61,-28.38 -5.37,-1.61 -9.49,-1.74 -14.99995,-0.98 z m -231,698.98 c -9.26,1.73 -16.7,4.73 -24,10.88 -4.2,3.55 -7.44,7.91 -10.13,12.68 -19.05,33.82 9.48,75.64995 48.13,69.55995 7.09,-1.12 12.97,-3.36 19,-7.26 24.55,-15.88995 28.13,-51.32995 7.91,-72.25995 -10.62,-10.99 -25.98,-15.52 -40.91,-13.6 z" />
  <path
     style="fill:#ffffff;stroke-width:0.261603"
     d="M 97.300734,367.38306 C 91.417456,366.32 81.850586,363.99187 77.41887,362.54475 c -5.476122,-1.78816 -12.363743,-6.7899 -20.630082,-14.9814 -5.091904,-5.04578 -7.00684,-7.25125 -13.677899,-15.75287 L 37.876392,325.13961 27.876866,305.27669 17.87734,285.41378 13.950623,272.31467 C 7.2061896,249.81594 7.3698457,250.80036 7.5021269,233.53162 c 0.1221874,-15.96166 0.028125,-15.51167 4.9764031,-24.18663 1.34275,-2.35473 4.201717,-7.43734 6.353309,-11.29469 2.463937,-4.41736 4.726435,-8.097 6.112372,-9.94093 4.617373,-6.14326 16.146523,-19.61024 21.107301,-24.65508 2.941467,-2.99132 11.089713,-8.91272 16.187179,-11.7634 3.916404,-2.19017 9.720932,-2.73172 35.062043,-3.27123 11.804086,-0.25131 13.501526,-0.23078 21.448236,0.2594 4.74631,0.29275 11.36893,0.5323 14.7169,0.5323 7.95443,0 12.74034,0.72201 24.26524,3.66067 10.17627,2.59477 8.41377,1.80673 46.16372,20.64062 17.83881,8.89997 26.5388,13.10147 28.91646,13.96459 1.87043,0.67901 6.81474,2.28999 10.98733,3.57995 4.17256,1.28997 10.76497,3.41512 14.64978,4.72258 6.56831,2.21061 11.86277,3.77082 16.6118,4.89529 l 1.96203,0.46457 0.43234,3.79325 c 0.84891,7.44791 1.04785,10.99529 1.19025,21.22391 0.0906,6.50481 0.0312,12.4502 -0.16187,15.95781 -2.09822,38.29426 -12.97099,69.85558 -32.16167,93.35835 -1.23359,1.51075 -4.28956,4.82831 -6.79109,7.37237 -2.96022,3.01053 -4.47903,4.73753 -4.35003,4.94628 0.145,0.23469 0.0281,0.27375 -0.43128,0.14594 -1.68594,-0.46831 -8.32481,-1.51256 -11.35325,-1.78578 -2.95899,-0.26688 -4.49481,-0.23188 -11.77418,0.26875 -4.60421,0.31659 -10.49912,0.57281 -13.0998,0.5694 -5.22347,-0.006 -7.56369,0.31428 -14.10693,1.93578 -8.57622,2.12531 -22.53524,6.42109 -32.10189,9.87906 -19.75777,7.14165 -22.35124,7.7304 -35.52258,8.0645 -5.52602,0.14031 -9.37205,0.35978 -10.98733,0.62734 -3.11169,0.51544 -5.17444,0.48797 -8.502123,-0.11344 z"
     id="path1" />
  <path
     style="fill:#ffffff;stroke-width:0.739925"
     d="m 535.20671,683.69245 c -0.56678,-3.77959 -3.68212,-11.39887 -8.74512,-21.38818 -2.30143,-4.54071 -5.11327,-8.55677 -8.8383,-12.62337 -8.45819,-9.23387 -8.95309,-10.07865 -15.36265,-26.22276 l -6.02222,-15.16846 -4.29828,-32.92673 -4.29831,-32.92671 18.95881,-18.87539 c 73.85036,-73.52552 138.89383,-157.1071 180.79949,-232.32948 33.22292,-59.63648 66.37303,-145.6262 89.00858,-230.883779 2.31909,-8.734845 4.26347,-15.93306 4.32087,-15.996029 0.0575,-0.06297 11.75818,-1.185481 26.00177,-2.494467 23.5157,-2.161096 27.49655,-2.340608 43.28566,-1.951934 18.43868,0.4539 29.30971,1.625703 42.54573,4.586063 11.92502,2.667137 27.60427,7.541171 31.60226,9.823839 3.63053,2.072871 15.26324,12.0011 25.28071,21.576454 6.2874,6.009922 23.38011,25.191463 28.41095,31.882953 5.9215,7.87609 11.44821,22.08504 12.37174,31.8071 0.43094,4.53646 0.17032,5.73636 -4.09943,18.86811 -27.31805,84.01887 -73.23634,173.70996 -122.52906,239.33317 -58.96231,78.49627 -158.26076,169.56551 -278.47641,255.39812 -14.91227,10.64718 -45.25876,31.52601 -48.56725,33.41495 -0.55169,0.315 -1.01704,-0.68622 -1.34954,-2.90347 z"
     id="path2" />
  <path
     style="fill:#ffffff;stroke-width:0.739925"
     d="m 540.35796,1784.316 c -52.10628,-2.6674 -100.03732,-9.4007 -139.47605,-19.5934 -49.595,-12.8176 -109.43409,-39.5999 -158.7141,-71.0361 l -10.35896,-6.608 -0.48728,-4.7979 c -0.92266,-9.0847 -5.73416,-19.1554 -14.3119,-29.9553 -9.279,-11.6829 -26.69061,-28.7414 -42.67132,-41.8059 -8.71147,-7.1218 -17.56415,-14.947 -19.67258,-17.3895 -12.506,-14.487 -21.90224,-27.9299 -39.04689,-55.8631 -11.07037,-18.0366 -14.17202,-24.7177 -17.118021,-36.8727 l -1.912968,-7.8929 0.451468,-24.0476 c 0.248125,-13.2261 0.75325,-26.8778 1.122156,-30.3369 0.735156,-6.8937 12.014745,-44.6524 15.240675,-51.0184 2.43141,-4.7982 10.3424,-15.2605 25.48437,-33.7032 20.46455,-24.9254 34.41851,-44.1136 40.69538,-55.9605 l 1.78769,-3.3741 11.47836,2.8871 c 56.12622,14.1171 141.27918,29.6586 211.73358,38.6442 81.67036,10.416 146.95789,14.7554 221.60781,14.7294 119.06166,-0.042 256.45036,-13.1496 414.35852,-39.5339 56.4448,-9.4311 136.9282,-25.1287 176.3531,-34.396 4.2073,-0.9891 7.76,-1.7983 7.8947,-1.7983 0.1347,0 0.7909,1.6438 1.4581,3.6529 1.8883,5.6851 6.4763,12.1379 14.7073,20.6849 4.1573,4.317 10.1338,10.6305 13.2812,14.0301 9.1089,9.8389 34.5695,41.9851 39.3505,49.6833 7.2343,11.6487 17.4793,32.7729 23.53,48.5161 6.5902,17.1477 6.3031,14.5471 4.5826,41.5184 -1.169,18.3252 -2.3256,26.0836 -6.764,45.372 l -2.6391,11.4688 -12.3096,23.9 c -17.1228,33.2456 -17.6803,33.9441 -66.2823,83.0572 -72.959,73.7263 -92.5551,93.9069 -94.2326,97.0433 -1.8837,3.5221 -2.3623,3.8184 -16.7888,10.3906 -30.8395,14.0495 -73.1305,28.2673 -106.074,35.661 -50.34127,11.2983 -119.45333,19.4841 -197.46791,23.3886 l -16.44136,0.8228 -7.97622,-4.7822 c -12.26337,-7.3528 -12.76074,-7.5317 -31.28554,-11.2552 -27.65308,-5.5582 -50.51429,-6.2493 -86.93961,-2.6283 -20.37818,2.0258 -22.36762,2.3629 -39.53876,6.7012 -20.68646,5.2265 -23.81765,6.288 -30.58167,10.3675 l -4.901,2.956 -24.64308,-0.11 c -13.55368,-0.061 -29.97052,-0.3827 -36.48189,-0.7161 z"
     id="path4" />
  <path
     style="fill:#7b2d26;fill-opacity:1;stroke-width:2.09283"
     d="m 554.84499,1346.6338 c -5.17975,-0.354 -24.48609,-1.653 -42.90295,-2.8868 -65.88006,-4.4134 -142.91842,-14.3572 -219.74682,-28.364 -44.26647,-8.0703 -103.76116,-21.3472 -106.26863,-23.715 -1.65509,-1.5629 23.51896,-72.3352 50.67426,-142.4615 25.9067,-66.9018 61.66631,-129.0187 90.99276,-158.06056 24.45586,-24.21855 73.54718,-63.67444 106.30882,-85.44296 43.54425,-28.93304 41.41513,-25.45179 41.41513,-67.71633 0,-33.90808 0.15031,-35.07805 7.21184,-56.18144 9.85924,-29.46392 16.8089,-42.34151 36.38451,-67.41984 9.21809,-11.80934 17.07112,-22.20764 17.45112,-23.10736 0.38,-0.89975 12.93396,-10.03712 27.89767,-20.30527 31.87492,-21.87271 83.3508,-60.33931 113.01266,-84.45146 11.51055,-9.35696 21.49642,-17.01971 22.19083,-17.02839 0.6944,-0.009 5.56112,6.44868 10.8149,14.34964 33.96082,51.07235 83.17764,98.98229 129.4349,125.998 45.1455,26.36639 118.18537,44.51885 190.72391,47.40028 l 30.8692,1.22619 0.022,15.90168 c 0.013,8.74593 1.3974,20.43261 3.0777,25.97046 3.6322,11.97143 23.2039,36.50494 75.4457,94.57254 34.0839,37.88488 50.9288,60.42209 75.8655,101.5021 15.3888,25.35102 21.3133,51.14792 22.8305,99.40932 1.0392,33.0572 0.5095,40.3501 -7.4764,102.9307 -4.7271,37.044 -8.0637,68.7367 -7.4146,70.4283 1.3732,3.5785 2.8692,3.2038 -76.5451,19.1696 -153.10642,30.7811 -301.71259,50.3714 -436.35439,57.5233 -35.90351,1.9071 -132.25118,2.376 -155.91561,0.7588 z m 233.78184,-324.071 c 36.1487,-10.735 45.28041,-62.76419 14.88083,-84.78555 -32.55132,-23.58002 -77.7623,-1.0481 -77.7623,38.7547 0,15.41861 5.39097,26.85975 17.56677,37.28185 13.33128,11.4111 27.28114,14.1044 45.3147,8.749 z"
     id="path5" />
  <path
     style="fill:#7b2d26;fill-opacity:1;stroke-width:0.523206"
     d="m 466.16147,541.21124 c -8.92824,-1.23878 -25.00408,-5.05265 -45.51901,-10.79893 l -11.24893,-3.15084 -16.95246,-10.28459 C 373.2824,505.35386 371.10996,503.6317 357.59147,489.35077 344.48438,475.50444 339.7201,470.1991 325.70989,453.84845 l -13.44946,-15.69621 -10.25321,-18.05062 c -5.63925,-9.92784 -14.74509,-25.21214 -20.23512,-33.96507 -11.67749,-18.61774 -13.43958,-20.66024 -23.5853,-27.33824 -9.30159,-6.12234 -12.14487,-7.65396 -17.26599,-9.30084 l -4.40312,-1.41596 2.90434,-2.83803 c 7.83078,-7.65212 16.98868,-20.2428 22.35646,-30.73677 12.20455,-23.85972 18.20605,-51.59029 18.25064,-84.32912 0.0156,-11.36879 -0.73656,-25.23085 -1.51331,-27.893 -0.24656,-0.84489 -0.0584,-0.90307 1.73097,-0.53561 6.24956,1.28336 18.60108,-0.0219 35.01458,-3.70007 8.84237,-1.98155 12.7733,-3.60623 22.08398,-9.1275 16.36378,-9.70376 21.15862,-14.56008 37.0118,-37.48643 3.97968,-5.75527 8.61621,-12.28901 10.3034,-14.51943 8.50659,-11.24546 38.08029,-37.917058 58.45625,-52.719847 20.25861,-14.717539 38.15498,-24.547084 59.85606,-32.87586 12.88471,-4.945101 13.77543,-5.383751 31.77939,-15.650373 l 18.52311,-10.562672 11.24896,-3.372321 C 589.7295,14.178213 602.98168,11.217229 617.3682,9.9273914 627.6102,9.0091338 635.96716,9.309213 660.7113,11.483736 l 23.88896,2.099369 22.99074,6.026867 c 23.85014,6.252147 47.177,13.764843 60.46071,19.472096 3.30928,1.421812 7.14031,3.007308 8.5134,3.523326 1.81513,0.682122 2.43135,1.167565 2.25753,1.778424 -0.13156,0.462113 -1.32924,5.078179 -2.66181,10.257926 -12.41965,48.277226 -31.81539,106.781466 -49.95559,150.683526 -25.2994,61.22833 -49.65966,105.71529 -87.04521,158.96263 -38.54432,54.89779 -81.52751,105.69523 -132.67296,156.79261 -11.0893,11.0789 -20.10798,20.32005 -20.04148,20.53586 0.19781,0.64203 -14.9125,0.34025 -20.28412,-0.40513 z"
     id="path6" />
  <path
     style="fill:#ffffff;fill-opacity:1;stroke-width:0.138107"
     d="m 1018.2608,435.70833 c -16.4957,-1.9475 -35.02274,-6.31037 -50.46251,-11.88324 -19.02677,-6.86762 -44.28785,-19.97658 -71.30043,-37.00064 -5.31903,-3.35215 -15.02161,-9.72699 -15.02815,-9.8738 -0.003,-0.0853 0.42316,-0.13688 7.31606,-0.88582 22.58665,-2.45378 48.58166,-3.69727 68.31431,-3.26787 10.29424,0.22406 17.02818,0.57075 24.70058,1.27188 17.98268,1.64331 32.55254,4.71124 43.53504,9.16705 3.2817,1.33144 4.1575,1.77385 6.1518,3.10766 4.4285,2.96184 8.4977,6.22596 11.8919,9.53937 4.7004,4.58837 7.3833,8.51912 8.3834,12.28296 0.7279,2.73922 0.1038,6.37325 -1.7446,10.15937 -4.2395,8.68359 -14.2834,15.12433 -26.9249,17.26586 -2.2737,0.38519 -2.5135,0.391 -4.8325,0.11719 z"
     id="path7" />
  <path
     style="fill:#ffffff;fill-opacity:1;stroke-width:0.390625"
     d="m 1037.3621,755.95178 c -49.19744,-2.34715 -91.4087,-8.9349 -129.88271,-20.27023 -43.22579,-12.73537 -76.80984,-30.68371 -111.62307,-59.65485 -29.45764,-24.51423 -59.37356,-57.72159 -82.52286,-91.60217 -4.77728,-6.9919 -12.12574,-18.45155 -12.07987,-18.83811 0.0125,-0.1075 2.42106,-2.21681 5.35181,-4.6875 57.02147,-48.07082 112.12444,-103.26525 147.02152,-147.26554 7.41015,-9.34312 20.1638,-26.50833 24.88761,-33.49627 l 1.6505,-2.44162 3.40328,2.28544 c 26.61661,17.87402 57.81084,34.94335 78.98917,43.22247 15.54943,6.07866 35.97686,11.25818 52.60452,13.33828 6.235,0.77997 8.839,0.54928 14.7783,-1.30919 10.9335,-3.42128 18.5001,-9.62434 21.8781,-17.93571 l 0.8631,-2.12372 1.9794,3.42938 c 2.9781,5.15978 6.6146,10.09846 24.0108,32.60923 14.1083,18.25611 16.829,22.01408 24.0376,33.20311 l 8.1288,12.61699 4.1643,11.52343 c 9.3969,26.00239 10.4339,29.17736 11.4187,34.96092 1.0898,6.3995 2.7174,19.94239 3.3332,27.73436 l 0.4322,5.46875 -2.3651,18.35936 -2.3651,18.35937 -4.6399,11.32811 c -9.4586,23.09299 -10.8608,26.17571 -17.366,38.18011 -5.8982,10.88437 -17.0401,31.63258 -28.7094,53.462 l -4.72,8.82965 -3.8099,15.48674 -3.8099,15.48675 -11.3476,-0.0738 c -6.2413,-0.0406 -12.4024,-0.12407 -13.6915,-0.18563 z"
     id="path8" />
  <path
     style="fill:#000000;fill-opacity:1;stroke-width:0.390625"
     d="m 469.589,2127.0656 c -19.21568,-3.1816 -25.62064,-5.2793 -38.12951,-12.4876 -15.3834,-8.8647 -19.88411,-12.4386 -36.8186,-29.2368 -22.88912,-22.7048 -28.5118,-28.8621 -44.43686,-48.6618 -10.69749,-13.3003 -13.96352,-17.0614 -20.97658,-24.1558 -8.51709,-8.6159 -13.74718,-12.8191 -22.33367,-17.9486 -9.3115,-5.5626 -12.12853,-6.1605 -18.69237,-3.9673 -7.84384,2.6208 -16.52855,8.4646 -26.60061,17.8991 -6.98631,6.544 -9.93881,7.7249 -18.18355,7.2728 -10.91165,-0.5984 -22.7559,-3.3327 -29.73455,-6.8644 -2.05056,-1.0377 -27.2022,-19.3163 -31.69023,-23.0304 -9.14875,-7.5711 -23.61318,-21.5678 -29.05123,-28.1116 -3.65469,-4.3979 -12.73894,-16.5258 -15.53943,-20.7459 -2.56706,-3.8682 -2.88222,-5.1439 -3.89769,-15.7776 -1.19884,-12.5535 -1.19428,-13.3348 0.12688,-21.6796 2.62709,-16.5934 3.43234,-20.3532 5.8289,-27.2157 2.85593,-8.1778 15.2518,-38.4226 20.00936,-48.821 6.88659,-15.0517 12.69071,-26.0917 17.54031,-33.3631 1.22706,-1.8399 8.36737,-11.4205 15.86739,-21.2903 17.14174,-22.558 22.34474,-29.7284 24.07408,-33.177 2.36675,-4.7198 8.79991,-20.6244 10.58609,-26.1719 0.34588,-1.0742 1.25125,-6.1606 2.01194,-11.303 0.76069,-5.1425 1.44581,-9.4126 1.5225,-9.4893 0.0766,-0.077 2.92978,1.6873 6.34021,3.9199 35.72461,23.3875 81.91315,46.3684 122.99759,61.197 45.81279,16.5352 97.07011,26.3768 160.7421,30.8631 20.68099,1.4572 58.38003,2.5948 71.20062,2.1485 l 7.72406,-0.2687 -2.28153,2.2866 c -4.74578,4.7563 -6.69084,11.9153 -7.51115,27.6456 -0.52235,10.0169 0.39793,18.2658 3.35921,30.1097 2.18935,8.7565 6.53722,15.6567 29.65942,47.0703 l 9.05697,12.3047 13.11293,26.1718 c 12.72562,25.3988 16.36611,32.999 22.32864,46.6153 3.51909,8.0364 7.02903,17.1906 7.58825,19.7909 0.61794,2.8735 1.74319,21.89 1.44909,24.4895 -0.13906,1.228 -0.66362,3.6031 -1.166,5.2779 -1.47647,4.9224 -8.58131,23.9195 -9.96484,26.6442 -2.27806,4.4863 -10.67827,17.9428 -12.50302,20.0287 -2.73119,3.1223 -13.13834,9.6541 -30.68552,19.259 -9.45315,5.1745 -33.73532,17.4532 -39.25779,19.8513 -9.15384,3.9752 -18.04758,6.8277 -24.42561,7.8341 -5.1415,0.8113 -31.49917,2.7279 -59.94934,4.3592 -5.90822,0.3389 -12.41212,0.7783 -14.45312,0.9767 -5.13978,0.4997 -10.90918,0.4031 -14.84374,-0.2484 z"
     id="path9" />
  <path
     style="fill:#000000;fill-opacity:1;stroke-width:0.390625"
     d="m 890.02574,2135.468 c -1.76734,-0.5115 -3.41012,-2.6201 -7.17656,-9.2117 -5.2954,-9.2675 -7.38456,-13.839 -21.38902,-46.8035 l -13.27608,-31.25 -1.78022,-8.9844 c -2.58875,-13.0647 -3.703,-19.1318 -4.35125,-23.6926 -0.76778,-5.4016 -0.77147,-20.7175 -0.006,-27.4792 0.31594,-2.793 0.57784,-7.2103 0.58203,-9.8163 0.006,-3.543 0.59222,-9.1097 2.32531,-22.0703 1.28319,-9.5959 3.21416,-26.7924 4.32609,-38.5267 l 2.00841,-21.1946 -2.00487,-13.3757 c -1.10266,-7.3567 -2.77803,-18.0339 -3.72303,-23.7273 l -1.71819,-10.3515 -4.15912,-10.1563 c -9.51369,-23.2317 -11.07375,-26.4347 -15.60146,-32.0312 -8.05559,-9.9573 -16.01293,-18.8922 -18.32052,-20.5712 l -1.52344,-1.1085 h 1.13281 c 0.62306,-10e-4 6.66993,-0.265 13.43752,-0.5865 74.47525,-3.5391 146.09427,-11.8246 194.53105,-22.505 39.0344,-8.6071 83.8846,-23.929 118.2618,-40.4011 l 5.957,-2.8543 v 1.6314 c 0,2.755 1.085,8.9931 1.9671,11.3509 1.1787,3.1502 4.0098,7.2156 8.1929,11.7649 13.5951,14.7849 14.6448,15.6855 22.7329,19.5053 8.465,3.9978 15.3075,6.0512 40.347,12.1076 13.8294,3.3451 16.6573,4.176 30.664,9.0107 8.4863,2.9292 16.6602,5.9514 18.1641,6.716 3.4072,1.7323 20.1421,12.497 25.3906,16.3324 12.2952,8.985 22.6102,19.3731 32.9689,33.2029 8.7518,11.6844 9.081,12.3251 14.493,28.2042 3.4007,9.9778 4.9307,16.0994 7.2049,28.827 0.9981,5.586 2.4163,13.2324 3.1513,16.9922 1.6167,8.2679 2.0387,11.7412 2.3259,19.1406 0.1209,3.1152 0.4183,9.4537 0.6608,14.0855 0.6057,11.5672 -0.1116,18.8488 -3.1935,32.4245 l -1.175,5.1757 -6.4362,10.4467 c -15.8434,25.7157 -19.5724,30.9534 -30.1712,42.3778 -9.6118,10.3608 -23.1484,22.174 -32.7195,28.5541 -2.2298,1.4864 -27.4309,14.8453 -36.1328,19.1537 -2.2559,1.1169 -10.7255,5.0184 -18.8213,8.67 l -14.7198,6.6392 -8.7177,1.1891 c -11.0279,1.5042 -19.5418,2.3774 -23.1801,2.3774 -8.8658,0 -28.2275,-3.0867 -52.7898,-8.4157 l -11.5544,-2.5069 -4.3468,-2.4145 c -2.3906,-1.328 -6.8956,-3.9946 -10.0108,-5.9259 -7.0182,-4.3509 -41.2808,-27.1742 -48.4323,-32.2622 -7.4855,-5.3256 -9.6088,-6.5884 -12.6435,-7.5197 -5.3178,-1.6318 -10.0698,-0.019 -11.7174,3.9811 -1.2396,3.008 -1.1624,7.6803 0.5352,32.4075 0.2137,3.1153 0.3893,7.9493 0.3899,10.7422 6e-4,2.793 0.2597,7.3633 0.5755,10.1563 0.6943,6.138 0.7883,22.2774 0.1472,25.267 -0.6026,2.8099 -2.1976,4.3805 -5.0397,4.9629 -3.5085,0.7189 -11.5235,1.2262 -25.37723,1.6061 -7.19728,0.1975 -15.19531,0.5376 -17.77343,0.756 -5.93359,0.5029 -80.75049,0.4898 -82.49267,-0.016 z"
     id="path10" />
  <path
     style="fill:#000000;fill-opacity:1;stroke-width:0.0488281"
     d="m 1001.4323,267.95337 c -5.14455,-0.30719 -10.6764,-2.01851 -14.7568,-4.56517 -4.77272,-2.97878 -7.61021,-7.25466 -8.18093,-12.32798 -0.0744,-0.66003 -0.0744,-2.36731 0,-3.02734 0.55287,-4.9149 3.21553,-9.06932 7.74452,-12.08357 2.63841,-1.75596 5.57638,-2.95871 9.76562,-3.99784 1.93019,-0.47877 2.84322,-0.61968 5.10259,-0.78745 1.1541,-0.0857 3.5723,-0.0986 4.5434,-0.0241 3.0097,0.23053 6.3972,1.00962 9.2261,2.12183 1.4447,0.56799 3.5739,1.68528 4.8828,2.56221 4.0786,2.73253 6.9438,6.38102 8.0522,10.25388 0.3784,1.32206 0.5084,2.25143 0.5092,3.6397 7e-4,1.11502 -0.074,1.83094 -0.2906,2.80165 -0.8171,3.65476 -3.2934,7.31469 -6.6839,9.87875 -3.9433,2.98211 -9.6845,4.98573 -15.7129,5.48356 -1.1166,0.0922 -3.25,0.12875 -4.2012,0.0719 z"
     id="path11" />
  <path
     style="fill:#ffd3af;fill-opacity:1;stroke-width:0.276213"
     d="m 1051.4829,404.29494 c -0.6416,-1.32381 -1.9632,-3.40071 -2.9369,-4.61537 -4.8307,-6.02615 -14.8168,-14.09077 -20.7558,-16.76205 -3.5874,-1.61356 -10.8994,-4.00972 -16.2656,-5.33025 -12.43611,-3.06034 -26.25257,-4.82715 -44.47718,-5.68762 -7.87659,-0.37191 -36.74795,-0.19156 -44.77076,0.28 -12.30052,0.72259 -22.93561,1.5745 -33.36798,2.67287 -3.76834,0.39678 -6.90744,0.66547 -6.97578,0.59713 -0.0684,-0.0684 2.30772,-3.77628 5.28009,-8.2399 33.78026,-50.72748 64.29384,-110.65606 87.82049,-172.47915 5.32546,-13.99422 12.15099,-33.69221 15.54242,-44.85441 l 0.78807,-2.59376 0.63731,2.41251 c 0.46387,1.75599 0.99725,2.95042 1.95987,4.38914 1.68085,2.51206 6.15685,6.86412 12.83575,12.48017 2.8858,2.42659 5.9752,5.13976 6.8653,6.02926 2.3439,2.34234 5.0645,6.68758 8.3261,13.29826 l 2.8619,5.80048 3.6316,14.50121 c 3.8897,15.53132 5.6863,21.39987 9.3442,30.52158 6.7788,16.90464 12.1068,26.71408 18.9782,34.941 2.5381,3.0388 2.7092,3.17231 9.9729,7.78221 l 6.6699,4.23307 10.041,9.13331 c 5.5225,5.02331 11.719,10.62868 13.7699,12.45637 6.8374,6.09331 9.1088,8.84574 11.8292,14.33418 2.801,5.65096 2.9504,6.17134 2.9302,10.20377 -0.022,4.32069 -0.6652,6.80322 -3.0141,11.62837 -1.347,2.76684 -2.562,4.43647 -12.4619,17.12524 -19.4087,24.87599 -19.7805,25.29133 -30.0812,33.59995 -3.0384,2.45075 -6.6485,5.58538 -8.0226,6.96584 -2.3389,2.34975 -5.3738,6.44312 -5.3738,7.248 0,0.82669 -0.483,0.19375 -1.5808,-2.07128 z m -40.6408,-136.06367 c 5.8964,-1.35622 9.9255,-3.44067 13.3903,-6.92748 1.8207,-1.83223 2.4829,-2.74685 3.5188,-4.86029 1.917,-3.91079 2.2078,-6.75238 1.1006,-10.75165 -3.2434,-11.7148 -19.8178,-18.68943 -34.48343,-14.51092 -5.42818,1.54658 -8.98349,3.47203 -12.01305,6.50591 -3.44322,3.4481 -4.96488,7.09917 -4.97078,11.92679 -0.009,6.6975 3.47521,12.01683 10.26521,15.67536 2.58597,1.39334 7.28015,2.96338 10.37818,3.47115 3.47207,0.56906 9.03977,0.33926 12.81417,-0.52887 z"
     id="path12" />
</svg>
